<?xml version="1.0" encoding="utf-8"?>
<!-- Generator: Adobe Illustrator 27.3.1, SVG Export Plug-In . SVG Version: 6.00 Build 0)  -->
<svg version="1.1" id="Layer_1" xmlns="http://www.w3.org/2000/svg" xmlns:xlink="http://www.w3.org/1999/xlink" x="0px" y="0px"
	 viewBox="0 0 512 512" style="enable-background:new 0 0 512 512;" xml:space="preserve">
<style type="text/css">
	.st0{fill:none;}
</style>
<g>
	<path d="M506.46,184.26V381h-63.88c-34.35,0-62.19,27.84-62.19,62.2v63.89H255.34V381h65.82c32.71,0,59.23-26.52,59.23-59.23
		V191.45c0-32.71-26.52-59.22-59.23-59.22H190.84c-32.71,0-59.23,26.51-59.23,59.22v64.65h-3.79v0.06H5.54V132.23h63.88
		c34.35,0,62.19-27.85,62.19-62.19V6.15h196.74C426.72,6.15,506.46,85.9,506.46,184.26z"/>
	<polygon points="127.82,256.1 131.61,256.1 127.82,256.16 	"/>
	<path d="M255.34,256.1V381h-64.5c-6.16,0.01-12.12,0.92-17.73,2.62c-25.37,7.65-43.85,31.19-43.85,59.06v64.41H5.54V381h63.15
		c27.94,0,51.54-18.57,59.13-44.04c1.67-5.59,2.56-11.51,2.56-17.64l1.23-63.22H255.34z"/>
	<path class="st0" d="M380.39,191.45v130.32c0,32.71-26.52,59.23-59.23,59.23h-65.82V256.1H131.61v-64.65
		c0-32.71,26.52-59.22,59.23-59.22h130.32C353.87,132.23,380.39,158.74,380.39,191.45z"/>
</g>
</svg>
