<?xml version="1.0" encoding="utf-8"?>
<!-- Generator: Adobe Illustrator 27.3.1, SVG Export Plug-In . SVG Version: 6.00 Build 0)  -->
<svg version="1.1" id="Layer_1" xmlns="http://www.w3.org/2000/svg" xmlns:xlink="http://www.w3.org/1999/xlink" x="0px" y="0px"
	 viewBox="0 0 155 37" style="enable-background:new 0 0 155 37;" xml:space="preserve">
<style type="text/css">
	.st0{fill:none;}
</style>
<g>
	<path d="M36.26,13.36v13.97h-4.53c-2.44,0-4.42,1.97-4.42,4.41v4.54h-8.87v-8.95h4.67c2.32,0,4.2-1.88,4.2-4.21v-9.24
		c0-2.33-1.88-4.21-4.2-4.21h-9.25c-2.32,0-4.2,1.88-4.2,4.21v4.58H9.39v0.01H0.71v-8.8h4.53c2.44,0,4.42-1.97,4.42-4.41V0.72h13.96
		C30.6,0.72,36.26,6.38,36.26,13.36z"/>
	<polygon points="9.39,18.46 9.66,18.46 9.39,18.47 	"/>
	<path d="M18.44,18.46v8.87h-4.58c-0.44,0-0.86,0.06-1.26,0.18c-1.8,0.55-3.11,2.22-3.11,4.2v4.57H0.71v-8.95h4.48
		c1.98,0,3.66-1.32,4.2-3.13c0.11-0.39,0.18-0.81,0.18-1.25l0.09-4.49H18.44z"/>
	<path class="st0" d="M27.31,13.88v9.24c0,2.33-1.88,4.21-4.2,4.21h-4.67v-8.87H9.66v-4.58c0-2.33,1.88-4.21,4.2-4.21h9.25
		C25.43,9.67,27.31,11.55,27.31,13.88z"/>
</g>
<g>
	<g>
		<path d="M46.02,22.14H42.8V6.48h3.22v6.55h6.78V6.48h3.22v15.66h-3.22v-6.31h-6.78V22.14z"/>
		<path d="M66.26,22.45c-1.19,0-2.29-0.2-3.29-0.61s-1.88-0.98-2.62-1.71c-0.74-0.73-1.32-1.6-1.72-2.58
			c-0.41-0.99-0.61-2.07-0.61-3.24c0-1.17,0.2-2.25,0.61-3.24c0.41-0.99,0.98-1.85,1.72-2.59c0.74-0.73,1.61-1.3,2.62-1.71
			s2.1-0.61,3.29-0.61c1.19,0,2.29,0.2,3.29,0.61c1,0.41,1.87,0.98,2.6,1.71c0.73,0.73,1.31,1.59,1.72,2.58s0.62,2.07,0.62,3.25
			c0,1.17-0.2,2.25-0.61,3.24s-0.98,1.85-1.72,2.58s-1.61,1.3-2.61,1.71C68.55,22.25,67.45,22.45,66.26,22.45z M66.25,19.64
			c0.71,0,1.37-0.14,1.97-0.41c0.6-0.27,1.13-0.65,1.57-1.13c0.45-0.48,0.79-1.05,1.04-1.69c0.25-0.64,0.37-1.35,0.37-2.1
			c0-0.76-0.12-1.46-0.37-2.11c-0.25-0.65-0.59-1.21-1.04-1.7c-0.45-0.48-0.97-0.86-1.57-1.13c-0.6-0.27-1.25-0.4-1.96-0.4
			c-0.71,0-1.37,0.13-1.97,0.4c-0.61,0.27-1.13,0.64-1.58,1.13c-0.45,0.48-0.79,1.05-1.04,1.7c-0.25,0.65-0.37,1.35-0.37,2.11
			c0,0.76,0.12,1.46,0.37,2.11c0.25,0.65,0.59,1.21,1.04,1.7c0.45,0.48,0.97,0.86,1.58,1.13S65.55,19.64,66.25,19.64z"/>
		<path d="M90.17,6.48v8.61c0,1.53-0.27,2.85-0.82,3.95c-0.54,1.1-1.33,1.94-2.35,2.53c-1.02,0.59-2.24,0.88-3.67,0.88
			c-1.42,0-2.64-0.29-3.67-0.88c-1.02-0.59-1.81-1.43-2.35-2.53c-0.55-1.1-0.82-2.42-0.82-3.95V6.48h3.22v8.22
			c0,1.09,0.14,2,0.41,2.74c0.28,0.73,0.68,1.28,1.22,1.65c0.54,0.37,1.2,0.56,1.99,0.56c0.79,0,1.46-0.19,1.99-0.56
			c0.54-0.37,0.94-0.92,1.21-1.65c0.28-0.73,0.41-1.64,0.41-2.74V6.48H90.17z"/>
		<path d="M91.99,20.44l1.52-2.45c0.48,0.39,0.94,0.71,1.39,0.96s0.89,0.43,1.33,0.54c0.44,0.11,0.89,0.17,1.35,0.17
			c0.54,0,1.01-0.08,1.41-0.23c0.4-0.15,0.7-0.37,0.92-0.66c0.22-0.29,0.33-0.62,0.33-0.99c0-0.44-0.14-0.81-0.42-1.11
			c-0.28-0.3-0.64-0.56-1.09-0.79c-0.45-0.23-0.93-0.44-1.46-0.65c-0.51-0.21-1.02-0.44-1.53-0.68s-0.98-0.54-1.41-0.88
			c-0.43-0.34-0.77-0.76-1.03-1.25c-0.26-0.49-0.39-1.09-0.39-1.79c0-0.92,0.23-1.71,0.69-2.38s1.1-1.18,1.91-1.55
			c0.81-0.36,1.73-0.54,2.77-0.54c0.73,0,1.49,0.1,2.28,0.29c0.79,0.2,1.58,0.49,2.36,0.89l-1.26,2.6c-0.49-0.3-1.03-0.54-1.6-0.71
			c-0.57-0.17-1.11-0.26-1.61-0.26c-0.45,0-0.85,0.07-1.18,0.21s-0.6,0.33-0.79,0.58c-0.19,0.25-0.28,0.54-0.28,0.87
			c0,0.4,0.14,0.74,0.41,1.03c0.27,0.29,0.62,0.54,1.06,0.77c0.44,0.22,0.9,0.45,1.4,0.67c0.51,0.22,1.04,0.47,1.56,0.73
			s1.01,0.58,1.44,0.93c0.43,0.36,0.79,0.79,1.05,1.28c0.27,0.5,0.4,1.09,0.4,1.79c0,0.92-0.24,1.72-0.73,2.42
			c-0.49,0.69-1.17,1.23-2.04,1.62c-0.87,0.39-1.88,0.58-3.04,0.58c-1.06,0-2.07-0.17-3.04-0.51C93.72,21.6,92.82,21.1,91.99,20.44z
			"/>
		<path d="M105.56,22.14V6.48h10.11v2.81h-6.89v3.56h6.46v2.82h-6.46v3.66h7v2.81H105.56z"/>
		<path d="M130.76,22.45c-1.19,0-2.29-0.2-3.29-0.61s-1.88-0.98-2.62-1.71s-1.32-1.6-1.72-2.58s-0.61-2.07-0.61-3.24
			c0-1.17,0.2-2.25,0.61-3.24c0.41-0.99,0.98-1.85,1.72-2.59s1.61-1.3,2.62-1.71s2.1-0.61,3.29-0.61s2.29,0.2,3.29,0.61
			c1,0.41,1.87,0.98,2.6,1.71c0.73,0.73,1.31,1.59,1.72,2.58c0.41,0.99,0.62,2.07,0.62,3.25c0,1.17-0.2,2.25-0.61,3.24
			s-0.98,1.85-1.72,2.58c-0.74,0.73-1.61,1.3-2.61,1.71S131.95,22.45,130.76,22.45z M130.75,19.64c0.71,0,1.37-0.14,1.97-0.41
			c0.6-0.27,1.13-0.65,1.57-1.13s0.79-1.05,1.04-1.69c0.25-0.64,0.37-1.35,0.37-2.1c0-0.76-0.12-1.46-0.37-2.11
			c-0.25-0.65-0.59-1.21-1.04-1.7s-0.97-0.86-1.57-1.13c-0.6-0.27-1.25-0.4-1.96-0.4s-1.37,0.13-1.97,0.4
			c-0.61,0.27-1.13,0.64-1.58,1.13s-0.79,1.05-1.04,1.7c-0.25,0.65-0.37,1.35-0.37,2.11c0,0.76,0.12,1.46,0.37,2.11
			c0.25,0.65,0.59,1.21,1.04,1.7c0.45,0.48,0.97,0.86,1.58,1.13S130.05,19.64,130.75,19.64z"/>
		<path d="M141,22.14V6.48h9.79v2.81h-6.58v3.56h6.15v2.82h-6.15v6.47H141z"/>
	</g>
</g>
<g>
	<g>
	</g>
</g>
<g>
	<g>
		<path d="M42.81,30.97v-6.28h2.06c0.76,0,1.42,0.13,1.97,0.39c0.56,0.26,0.99,0.62,1.29,1.09c0.3,0.47,0.46,1.02,0.46,1.67
			c0,0.64-0.15,1.19-0.46,1.66c-0.3,0.47-0.73,0.83-1.29,1.09c-0.56,0.26-1.21,0.38-1.97,0.38H42.81z M44.1,29.84h0.81
			c0.5,0,0.93-0.08,1.28-0.24c0.35-0.16,0.62-0.39,0.8-0.69c0.18-0.3,0.27-0.66,0.27-1.09c0-0.43-0.09-0.79-0.27-1.09
			c-0.18-0.3-0.45-0.53-0.8-0.68c-0.35-0.16-0.78-0.24-1.28-0.24H44.1V29.84z"/>
		<path d="M55.14,30.97v-6.28h4.05v1.13h-2.76v1.43h2.59v1.13h-2.59v1.47h2.81v1.13H55.14z"/>
		<path d="M69.46,30.97h-1.36l-2.5-6.28h1.35l1.83,4.81l1.83-4.81h1.36L69.46,30.97z"/>
		<path d="M78.35,30.97v-6.28h4.05v1.13h-2.76v1.43h2.59v1.13h-2.59v1.47h2.81v1.13H78.35z"/>
		<path d="M93.28,30.97h-4.1v-6.28h1.29v5.15h2.81V30.97z"/>
		<path d="M102.81,31.09c-0.48,0-0.92-0.08-1.32-0.25s-0.75-0.39-1.05-0.69c-0.3-0.29-0.53-0.64-0.69-1.04s-0.25-0.83-0.25-1.3
			c0-0.47,0.08-0.9,0.25-1.3c0.16-0.4,0.39-0.74,0.69-1.04c0.3-0.29,0.65-0.52,1.05-0.68c0.4-0.16,0.84-0.24,1.32-0.24
			s0.92,0.08,1.32,0.24c0.4,0.16,0.75,0.39,1.04,0.68c0.29,0.29,0.52,0.64,0.69,1.03c0.17,0.4,0.25,0.83,0.25,1.3
			c0,0.47-0.08,0.9-0.25,1.3c-0.16,0.4-0.39,0.74-0.69,1.04c-0.3,0.29-0.64,0.52-1.05,0.69C103.73,31.01,103.29,31.09,102.81,31.09z
			 M102.81,29.97c0.28,0,0.55-0.05,0.79-0.16c0.24-0.11,0.45-0.26,0.63-0.45s0.32-0.42,0.42-0.68c0.1-0.26,0.15-0.54,0.15-0.84
			c0-0.3-0.05-0.59-0.15-0.85c-0.1-0.26-0.24-0.49-0.42-0.68s-0.39-0.34-0.63-0.45s-0.5-0.16-0.79-0.16c-0.29,0-0.55,0.05-0.79,0.16
			c-0.24,0.11-0.45,0.26-0.63,0.45s-0.32,0.42-0.42,0.68c-0.1,0.26-0.15,0.54-0.15,0.85c0,0.3,0.05,0.59,0.15,0.85
			c0.1,0.26,0.24,0.49,0.42,0.68c0.18,0.19,0.39,0.34,0.63,0.45C102.26,29.91,102.53,29.97,102.81,29.97z"/>
		<path d="M112.67,30.97v-6.28h2.15c0.53,0,0.98,0.09,1.37,0.26s0.68,0.42,0.89,0.73c0.21,0.32,0.31,0.69,0.31,1.13
			s-0.1,0.82-0.31,1.14c-0.21,0.32-0.5,0.57-0.88,0.74c-0.38,0.17-0.83,0.26-1.36,0.26h-0.87v2.02H112.67z M113.96,27.81h0.74
			c0.44,0,0.78-0.09,1.01-0.26c0.24-0.17,0.35-0.42,0.35-0.74c0-0.32-0.12-0.56-0.35-0.74c-0.24-0.17-0.57-0.26-1.01-0.26h-0.74
			V27.81z"/>
		<path d="M124.04,30.97v-6.28h4.05v1.13h-2.76v1.43h2.59v1.13h-2.59v1.47h2.81v1.13H124.04z"/>
		<path d="M140.1,30.97h-1.43l-1.32-2.27h-1.2v2.27h-1.29v-6.28h2.55c0.5,0,0.94,0.08,1.3,0.24c0.36,0.16,0.64,0.39,0.83,0.69
			c0.19,0.3,0.29,0.66,0.29,1.08c0,0.43-0.1,0.8-0.3,1.1s-0.49,0.53-0.86,0.68L140.1,30.97z M136.15,27.67h1.16
			c0.38,0,0.68-0.08,0.88-0.24c0.21-0.16,0.31-0.39,0.31-0.69s-0.1-0.53-0.31-0.69c-0.21-0.16-0.5-0.24-0.88-0.24h-1.16V27.67z"/>
		<path d="M146.25,30.29l0.61-0.98c0.19,0.16,0.38,0.28,0.56,0.38c0.18,0.1,0.36,0.17,0.53,0.22s0.36,0.07,0.54,0.07
			c0.22,0,0.41-0.03,0.57-0.09s0.28-0.15,0.37-0.26c0.09-0.12,0.13-0.25,0.13-0.4c0-0.18-0.06-0.32-0.17-0.44
			c-0.11-0.12-0.26-0.23-0.44-0.32c-0.18-0.09-0.38-0.18-0.58-0.26c-0.2-0.08-0.41-0.17-0.61-0.27c-0.21-0.1-0.39-0.22-0.56-0.35
			c-0.17-0.14-0.31-0.3-0.42-0.5c-0.1-0.2-0.16-0.44-0.16-0.72c0-0.37,0.09-0.69,0.28-0.96c0.19-0.27,0.44-0.47,0.76-0.62
			c0.32-0.15,0.69-0.22,1.11-0.22c0.29,0,0.6,0.04,0.92,0.12c0.32,0.08,0.63,0.2,0.95,0.36l-0.51,1.04
			c-0.2-0.12-0.41-0.21-0.64-0.29c-0.23-0.07-0.44-0.1-0.64-0.1c-0.18,0-0.34,0.03-0.48,0.08c-0.13,0.06-0.24,0.13-0.32,0.23
			c-0.08,0.1-0.11,0.21-0.11,0.35c0,0.16,0.05,0.3,0.16,0.41c0.11,0.12,0.25,0.22,0.42,0.31c0.17,0.09,0.36,0.18,0.56,0.27
			c0.21,0.09,0.42,0.19,0.63,0.29c0.21,0.11,0.4,0.23,0.58,0.38c0.17,0.14,0.32,0.32,0.42,0.51c0.11,0.2,0.16,0.44,0.16,0.72
			c0,0.37-0.1,0.69-0.29,0.97c-0.2,0.28-0.47,0.49-0.82,0.65c-0.35,0.15-0.75,0.23-1.22,0.23c-0.42,0-0.83-0.07-1.22-0.21
			C146.94,30.75,146.58,30.55,146.25,30.29z"/>
	</g>
</g>
</svg>
